<svg xmlns="http://www.w3.org/2000/svg" viewBox="0 0 64 64" aria-hidden="true">
  <rect width="64" height="64" rx="14" fill="#5865f2"/>
  <path fill="#fff" d="M45.6 20.4A34.5 34.5 0 0 0 37 17.7l-.4.8c3.2.8 4.7 1.9 4.7 1.9a30 30 0 0 0-18.6 0s1.5-1.1 4.7-1.9l-.4-.8a34.5 34.5 0 0 0-8.6 2.7C13 28.4 11.7 36.2 12.4 43.9c3.6 2.7 7.1 4.3 10.5 5.4l2.3-3.7a13.9 13.9 0 0 1-3.7-1.8l.9-.7c7.1 3.3 14.8 3.3 21.8 0l.9.7a14 14 0 0 1-3.7 1.8l2.3 3.7c3.4-1.1 6.9-2.7 10.5-5.4.9-8.9-1.5-16.6-8.6-23.5ZM26.3 39.1c-2.1 0-3.9-2-3.9-4.4s1.7-4.4 3.9-4.4c2.2 0 3.9 2 3.9 4.4s-1.7 4.4-3.9 4.4Zm11.4 0c-2.1 0-3.9-2-3.9-4.4s1.7-4.4 3.9-4.4c2.2 0 3.9 2 3.9 4.4s-1.7 4.4-3.9 4.4Z"/>
</svg>
